name 900006_30ik_lsw.mot
datacolumns 165
datarows 4
range 0.52500000 0.55000000
cursor 1.0 1.0 0.0
keys m_key
wrap
enforce_loops no
enforce_constraints no
calc_derivatives 0.008333
event_color 1.000000 0.000000 1.000000
endheader

                time	          calcn_r_tx	          calcn_r_ty	          calcn_r_tz	          calcn_r_r1	          calcn_r_r2	          calcn_r_r3	          calcn_l_tx	          calcn_l_ty	          calcn_l_tz	          calcn_l_r1	          calcn_l_r2	          calcn_l_r3	           pelvis_tz	           pelvis_tx	           pelvis_ty	         pelvis_tilt	         pelvis_list	     pelvis_rotation	       hip_flexion_r	     hip_adduction_r	      hip_rotation_r	        knee_angle_r	       ankle_angle_r	    subtalar_angle_r	         mtp_angle_r	       hip_flexion_l	     hip_adduction_l	      hip_rotation_l	        knee_angle_l	       ankle_angle_l	    subtalar_angle_l	         mtp_angle_l	    lumbar_extension	      lumbar_bending	     lumbar_rotation	     ground_force_px	     ground_force_py	     ground_force_pz	     ground_force_vx	     ground_force_vy	     ground_force_vz	     ground_force_px	     ground_force_py	     ground_force_pz	     ground_force_vx	     ground_force_vy	     ground_force_vz	     ground_torque_x	     ground_torque_y	     ground_torque_z	     ground_torque_x	     ground_torque_y	     ground_torque_z	           midhip_px	           midhip_py	           midhip_pz	            hip_r_px	            hip_r_py	            hip_r_pz	            hip_l_px	            hip_l_py	            hip_l_pz	           knee_r_px	           knee_r_py	           knee_r_pz	           knee_l_px	           knee_l_py	           knee_l_pz	          ankle_r_px	          ankle_r_py	          ankle_r_pz	          ankle_l_px	          ankle_l_py	          ankle_l_pz	          midasis_px	          midasis_py	          midasis_pz	           asis_r_px	           asis_r_py	           asis_r_pz	           asis_l_px	           asis_l_py	           asis_l_pz	           psis_r_px	           psis_r_py	           psis_r_pz	           psis_l_px	           psis_l_py	           psis_l_pz	     epicondLat_r_px	     epicondLat_r_py	     epicondLat_r_pz	     epicondLat_l_px	     epicondLat_l_py	     epicondLat_l_pz	     epicondMed_r_px	     epicondMed_r_py	     epicondMed_r_pz	     epicondMed_l_px	     epicondMed_l_py	     epicondMed_l_pz	   malleolusLat_r_px	   malleolusLat_r_py	   malleolusLat_r_pz	   malleolusLat_l_px	   malleolusLat_l_py	   malleolusLat_l_pz	  malleolusMedv_r_px	  malleolusMedv_r_py	  malleolusMedv_r_pz	  malleolusMedv_l_px	  malleolusMedv_l_py	  malleolusMedv_l_pz	             neck_px	             neck_py	             neck_pz	    subclavicle_r_px	    subclavicle_r_py	    subclavicle_r_pz	    subclavicle_l_px	    subclavicle_l_py	    subclavicle_l_pz	     sternalnotch_px	     sternalnotch_py	     sternalnotch_pz	   xyphoidprocess_px	   xyphoidprocess_py	   xyphoidprocess_pz	      thighwand_r_px	      thighwand_r_py	      thighwand_r_pz	      thighwand_l_px	      thighwand_l_py	      thighwand_l_pz	      upperleg1_r_px	      upperleg1_r_py	      upperleg1_r_pz	      upperleg1_l_px	      upperleg1_l_py	      upperleg1_l_pz	      upperleg2_r_px	      upperleg2_r_py	      upperleg2_r_pz	      upperleg2_l_px	      upperleg2_l_py	      upperleg2_l_pz	      shankwand_r_px	      shankwand_r_py	      shankwand_r_pz	      shankwand_l_px	      shankwand_l_py	      shankwand_l_pz	      lowerleg1_r_px	      lowerleg1_r_py	      lowerleg1_r_pz	      lowerleg1_l_px	      lowerleg1_l_py	      lowerleg1_l_pz	            toe_r_px	            toe_r_py	            toe_r_pz	            toe_l_px	            toe_l_py	            toe_l_pz	
          0.52500000	          0.04836310	          0.12505037	         -0.17354710	         -5.83713820	        -14.55451174	        -38.29847874	          0.67088799	          0.03493235	         -0.26545091	         -2.91238678	         -3.14819731	         12.41829511	         -0.20960488	          0.51047786	          0.79471580	          0.97348805	         -0.17762569	         -7.54530181	        -16.44082173	         -2.77524272	         -7.75646369	        -26.41420406	          4.63494345	          0.00000000	          0.00000000	         26.77524500	          0.29762968	         -4.61702753	        -12.02341613	         -3.10732429	          0.00000000	          0.00000000	         -7.28211764	          2.12042357	          3.91680525	          0.19994071	          0.00000000	         -0.15254553	         73.61172848	        257.37532364	          5.45336743	          0.70126466	          0.00000000	         -0.25807983	        -78.45931080	        362.96344363	        -26.82881276	          0.00000000	         -0.06862496	          0.00000000	          0.00000000	          0.67147811	          0.00000000	          0.47350998	          0.73560766	         -0.21890264	          0.45937608	          0.73214771	         -0.16334800	          0.48764397	          0.73906711	         -0.27445740	          0.31547677	          0.41241084	         -0.14227715	          0.59128854	          0.40207430	         -0.26843909	          0.10253055	          0.12395564	         -0.15960347	          0.71447424	          0.06993396	         -0.26498820	          0.50848691	          0.80747827	         -0.20645828	          0.49661327	          0.80651902	         -0.09651102	          0.52036102	          0.80843750	         -0.31640573	          0.33050255	          0.84087621	         -0.20151973	          0.33633207	          0.83735338	         -0.25657750	          0.32810022	          0.40317900	         -0.08357005	          0.61743219	          0.40715446	         -0.32795551	          0.34920618	          0.39646286	         -0.20535739	          0.59405715	          0.40062355	         -0.20959628	          0.09430283	          0.12828779	         -0.12326901	          0.70557860	          0.06658943	         -0.30020292	          0.10238133	          0.11622634	         -0.19228486	          0.71144384	          0.06799858	         -0.23115048	          0.39410029	          1.23276911	         -0.21530125	          0.49991459	          1.15457071	         -0.16550035	          0.50441354	          1.15998468	         -0.27117673	          0.49945317	          1.15730196	         -0.22153743	          0.50339001	          1.05547092	         -0.22911029	          0.49536676	          0.50643285	         -0.08922345	          0.65392173	          0.58006955	         -0.33707354	          0.44530394	          0.55962972	         -0.07011163	          0.60915692	          0.61196717	         -0.27732544	          0.41944531	          0.50685998	         -0.07545645	          0.62167986	          0.55564126	         -0.26735561	          0.26836449	          0.14219020	         -0.11680085	          0.66783313	          0.16464349	         -0.38943977	          0.19670507	          0.17642686	         -0.14293683	          0.67525564	          0.15661909	         -0.30848858	          0.15770491	          0.06120796	         -0.14375880	          0.80344026	          0.07037835	         -0.26492332	
          0.53333333	          0.05788309	          0.13549054	         -0.17178919	         -5.44187499	        -13.90010337	        -42.66321280	          0.67333251	          0.03469228	         -0.26359207	         -3.21975405	         -3.40653212	          9.97408228	         -0.21106702	          0.52392672	          0.79518386	          1.01328890	          0.02522119	         -7.21003200	        -15.78567376	         -3.24528237	         -7.70263216	        -28.87966002	          1.84428297	          0.00000000	          0.00000000	         26.63870492	          0.99166620	         -4.09456895	        -13.19382450	         -4.23395374	          0.00000000	          0.00000000	         -7.23662599	          1.76157976	          3.89052970	          0.20253944	          0.00000000	         -0.15275880	         58.26544131	        192.66196785	          8.53504825	          0.70416352	          0.00000000	         -0.25786627	        -79.57785168	        393.35261825	        -25.33091383	          0.00000000	         -0.08549742	          0.00000000	          0.00000000	          0.46730793	          0.00000000	          0.48702334	          0.73604438	         -0.22027074	          0.47318391	          0.73243130	         -0.16465222	          0.50086273	          0.73965682	         -0.27588943	          0.33460517	          0.41004566	         -0.14111279	          0.60388259	          0.40274415	         -0.26787828	          0.11175514	          0.12997267	         -0.15813368	          0.71753135	          0.06893764	         -0.26383770	          0.52191352	          0.80796771	         -0.20776471	          0.51058682	          0.80669758	         -0.09769630	          0.53324060	          0.80923790	         -0.31783326	          0.34390773	          0.84110654	         -0.20143617	          0.34931857	          0.83791693	         -0.25643381	          0.34589467	          0.40210654	         -0.08244784	          0.62912244	          0.40802320	         -0.32747625	          0.36814497	          0.39413213	         -0.20392443	          0.60585610	          0.40252733	         -0.20800797	          0.10353792	          0.13473743	         -0.12185501	          0.70948446	          0.06597216	         -0.29929022	          0.11188356	          0.12199346	         -0.19077515	          0.71446678	          0.06696185	         -0.23014647	          0.40669604	          1.23380104	         -0.21685499	          0.51276761	          1.15588957	         -0.16702306	          0.51673471	          1.16097875	         -0.27305537	          0.51202411	          1.15844549	         -0.22322441	          0.51602037	          1.05659509	         -0.23048653	          0.51275700	          0.50734312	         -0.08940674	          0.66676877	          0.58079863	         -0.33678031	          0.46224703	          0.55981659	         -0.07039045	          0.62183724	          0.61325756	         -0.27755365	          0.43730569	          0.50666176	         -0.07521260	          0.63417556	          0.55693271	         -0.26701105	          0.27806629	          0.14301915	         -0.11469365	          0.67652759	          0.16493060	         -0.38874003	          0.20809746	          0.17925806	         -0.14128718	          0.68244892	          0.15678827	         -0.30776953	          0.16264748	          0.06262006	         -0.14314038	          0.80718987	          0.06562710	         -0.26294660	
          0.54166667	          0.06932942	          0.14582266	         -0.16899932	         -4.95954279	        -13.20632245	        -47.10672178	          0.67488434	          0.03456802	         -0.26366894	         -3.35262474	         -3.54270116	          7.91434676	         -0.21225525	          0.53725765	          0.79613998	          1.15613308	          0.34927444	         -6.82059420	        -15.07037950	         -3.84193505	         -7.62241601	        -31.39723932	         -1.14471280	          0.00000000	          0.00000000	         26.30448323	          1.65917582	         -3.70094663	        -14.39026520	         -4.85913557	          0.00000000	          0.00000000	         -7.28621551	          1.40720143	          3.80668824	          0.20541111	          0.00000000	         -0.15237579	         41.70709012	        130.11454498	          8.83414016	          0.70774617	          0.00000000	         -0.25800555	        -82.26355641	        420.13879647	        -20.08426225	          0.00000000	         -0.11220176	          0.00000000	          0.00000000	         -0.02146949	          0.00000000	          0.50042650	          0.73676831	         -0.22173513	          0.48692377	          0.73298940	         -0.16604578	          0.51392911	          0.74054649	         -0.27742464	          0.35414722	          0.40794830	         -0.13991500	          0.61641994	          0.40369126	         -0.26762371	          0.12245382	          0.13594400	         -0.15669704	          0.71989221	          0.06809461	         -0.26303357	          0.53516187	          0.80875348	         -0.20918178	          0.52445005	          0.80716467	         -0.09899634	          0.54587400	          0.81034239	         -0.31936725	          0.35717215	          0.84146214	         -0.20128136	          0.36210253	          0.83865842	         -0.25618246	          0.36442107	          0.40107020	         -0.08132495	          0.64031949	          0.40905917	         -0.32726858	          0.38738715	          0.39204691	         -0.20214287	          0.61791308	          0.40475702	         -0.20651067	          0.11417324	          0.14120931	         -0.12050785	          0.71266873	          0.06547833	         -0.29869799	          0.12309248	          0.12835704	         -0.18941676	          0.71670374	          0.06635465	         -0.22949646	          0.41936209	          1.23514049	         -0.21833702	          0.52555101	          1.15749248	         -0.16843787	          0.52903539	          1.16218977	         -0.27488765	          0.52455133	          1.15984002	         -0.22483526	          0.52852107	          1.05796373	         -0.23172346	          0.53060160	          0.50858642	         -0.08948430	          0.67915573	          0.58168226	         -0.33681248	          0.47958367	          0.56028756	         -0.07050158	          0.63398526	          0.61489662	         -0.27793630	          0.45556493	          0.50674807	         -0.07475504	          0.64633115	          0.55859891	         -0.26684474	          0.28888496	          0.14410608	         -0.11225449	          0.68448316	          0.16520931	         -0.38843639	          0.22104549	          0.18243959	         -0.13917625	          0.68890029	          0.15708888	         -0.30763678	          0.16842881	          0.06420041	         -0.14257114	          0.81022901	          0.06144881	         -0.26177516	
          0.55000000	          0.08271320	          0.15598281	         -0.16773556	         -4.46552442	        -12.84775547	        -51.64512279	          0.67650261	          0.03459289	         -0.26277996	         -3.58528094	         -3.71619029	          6.21685510	         -0.21423197	          0.55020850	          0.79738768	          1.31085490	          0.51001982	         -6.47041504	        -14.23218078	         -4.28968289	         -7.72192458	        -33.91615105	         -4.37810895	          0.00000000	          0.00000000	         25.92794780	          2.28584902	         -3.34048727	        -15.52289682	         -5.15820650	          0.00000000	          0.00000000	         -7.41069307	          0.98991216	          3.65639345	          0.20943825	          0.00000000	         -0.15173892	         25.49692861	         78.07820291	          6.82106616	          0.71205358	          0.00000000	         -0.25847379	        -87.95802607	        446.97129234	        -11.56432878	          0.00000000	         -0.13892436	          0.00000000	          0.00000000	         -0.68868877	          0.00000000	          0.51367486	          0.73779422	         -0.22326377	          0.50054064	          0.73382702	         -0.16750045	          0.52680891	          0.74176070	         -0.27902717	          0.37399140	          0.40610301	         -0.13875439	          0.62863368	          0.40493022	         -0.26773225	          0.13470275	          0.14178954	         -0.15531798	          0.72167452	          0.06737725	         -0.26253417	          0.54819427	          0.80983913	         -0.21066412	          0.53814639	          0.80791306	         -0.10037038	          0.55824238	          0.81176528	         -0.32095776	          0.37027517	          0.84196358	         -0.20108454	          0.37468366	          0.83958105	         -0.25582397	          0.38362926	          0.40007827	         -0.08026167	          0.65091083	          0.41016550	         -0.32737604	          0.40686667	          0.39020671	         -0.20015133	          0.62994165	          0.40712813	         -0.20540258	          0.12630138	          0.14761281	         -0.11924782	          0.71519157	          0.06505478	         -0.29837261	          0.13600600	          0.13514738	         -0.18821500	          0.71821347	          0.06604720	         -0.22913377	          0.43206265	          1.23671422	         -0.21972486	          0.53824005	          1.15932639	         -0.16977379	          0.54130326	          1.16359137	         -0.27661481	          0.53701679	          1.16144598	         -0.22635555	          0.54090324	          1.05954019	         -0.23283336	          0.54878993	          0.51015207	         -0.08945028	          0.69103415	          0.58266746	         -0.33722676	          0.49717753	          0.56097960	         -0.07046816	          0.64560775	          0.61676956	         -0.27850101	          0.47407670	          0.50705285	         -0.07414029	          0.65807374	          0.56051149	         -0.26695813	          0.30087444	          0.14540557	         -0.10958726	          0.69155519	          0.16535637	         -0.38848146	          0.23549317	          0.18584635	         -0.13668122	          0.69448023	          0.15733016	         -0.30797840	          0.17526022	          0.06605390	         -0.14204121	          0.81261127	          0.05790518	         -0.26130174	
